<mxfile host="Electron" agent="Mozilla/5.0 (X11; Linux x86_64) AppleWebKit/537.36 (KHTML, like Gecko) draw.io/28.0.6 Chrome/138.0.7204.100 Electron/37.2.3 Safari/537.36" version="28.0.6">
  <diagram name="Страница — 1" id="r9L8aogxx5_OCJokWrUm">
    <mxGraphModel dx="815" dy="487" grid="1" gridSize="10" guides="1" tooltips="1" connect="1" arrows="1" fold="1" page="1" pageScale="1" pageWidth="1169" pageHeight="827" math="0" shadow="0">
      <root>
        <mxCell id="0" />
        <mxCell id="1" parent="0" />
        <mxCell id="ynqc17D_jlQSUSlEL-ki-9" style="edgeStyle=orthogonalEdgeStyle;rounded=0;orthogonalLoop=1;jettySize=auto;html=1;exitX=0.5;exitY=0.5;exitDx=0;exitDy=0;exitPerimeter=0;entryX=0;entryY=0.5;entryDx=0;entryDy=0;startArrow=classic;startFill=1;" edge="1" parent="1" source="ynqc17D_jlQSUSlEL-ki-1" target="ynqc17D_jlQSUSlEL-ki-2">
          <mxGeometry relative="1" as="geometry" />
        </mxCell>
        <mxCell id="ynqc17D_jlQSUSlEL-ki-1" value="Клиент" style="shape=umlActor;verticalLabelPosition=bottom;verticalAlign=top;html=1;outlineConnect=0;" vertex="1" parent="1">
          <mxGeometry x="150" y="140" width="30" height="60" as="geometry" />
        </mxCell>
        <mxCell id="ynqc17D_jlQSUSlEL-ki-2" value="Фронтенд" style="swimlane;whiteSpace=wrap;html=1;fontStyle=0" vertex="1" parent="1">
          <mxGeometry x="250" y="105" width="130" height="130" as="geometry" />
        </mxCell>
        <mxCell id="ynqc17D_jlQSUSlEL-ki-3" value="БД" style="shape=datastore;whiteSpace=wrap;html=1;" vertex="1" parent="1">
          <mxGeometry x="620" y="140" width="60" height="60" as="geometry" />
        </mxCell>
        <mxCell id="ynqc17D_jlQSUSlEL-ki-11" style="edgeStyle=orthogonalEdgeStyle;rounded=0;orthogonalLoop=1;jettySize=auto;html=1;exitX=0.75;exitY=0.5;exitDx=0;exitDy=0;exitPerimeter=0;entryX=0;entryY=0.5;entryDx=0;entryDy=0;startArrow=classic;startFill=1;" edge="1" parent="1" source="ynqc17D_jlQSUSlEL-ki-4" target="ynqc17D_jlQSUSlEL-ki-3">
          <mxGeometry relative="1" as="geometry" />
        </mxCell>
        <mxCell id="ynqc17D_jlQSUSlEL-ki-4" value="Бэкенд" style="shape=switch;whiteSpace=wrap;html=1;" vertex="1" parent="1">
          <mxGeometry x="450" y="120" width="100" height="100" as="geometry" />
        </mxCell>
        <mxCell id="ynqc17D_jlQSUSlEL-ki-5" value="" style="shape=curlyBracket;whiteSpace=wrap;html=1;rounded=1;labelPosition=left;verticalLabelPosition=middle;align=right;verticalAlign=middle;rotation=-90;" vertex="1" parent="1">
          <mxGeometry x="305" y="175" width="20" height="150" as="geometry" />
        </mxCell>
        <mxCell id="ynqc17D_jlQSUSlEL-ki-6" value="V - представление" style="text;html=1;align=center;verticalAlign=middle;whiteSpace=wrap;rounded=0;" vertex="1" parent="1">
          <mxGeometry x="255" y="260" width="120" height="30" as="geometry" />
        </mxCell>
        <mxCell id="ynqc17D_jlQSUSlEL-ki-7" value="" style="shape=curlyBracket;whiteSpace=wrap;html=1;rounded=1;labelPosition=left;verticalLabelPosition=middle;align=right;verticalAlign=middle;rotation=-90;" vertex="1" parent="1">
          <mxGeometry x="490" y="190" width="20" height="120" as="geometry" />
        </mxCell>
        <mxCell id="ynqc17D_jlQSUSlEL-ki-8" value="C, M - контроллер, модель" style="text;html=1;align=center;verticalAlign=middle;whiteSpace=wrap;rounded=0;fontSize=9;" vertex="1" parent="1">
          <mxGeometry x="435" y="260" width="130" height="30" as="geometry" />
        </mxCell>
        <mxCell id="ynqc17D_jlQSUSlEL-ki-10" style="edgeStyle=orthogonalEdgeStyle;rounded=0;orthogonalLoop=1;jettySize=auto;html=1;exitX=1;exitY=0.5;exitDx=0;exitDy=0;entryX=0.25;entryY=0.5;entryDx=0;entryDy=0;entryPerimeter=0;startArrow=classic;startFill=1;" edge="1" parent="1" source="ynqc17D_jlQSUSlEL-ki-2" target="ynqc17D_jlQSUSlEL-ki-4">
          <mxGeometry relative="1" as="geometry" />
        </mxCell>
      </root>
    </mxGraphModel>
  </diagram>
</mxfile>
